<svg xmlns="http://www.w3.org/2000/svg" viewBox="0 0 720 900" version="1.1" x="0px" y="0px"><path fill="#000000" opacity="1.00" d=" M 426.21 188.27 C 434.80 180.95 446.95 176.45 458.08 180.13 C 469.53 183.56 477.77 193.70 481.22 204.85 C 487.54 224.21 487.32 244.96 486.30 265.08 C 484.87 287.35 481.37 309.56 474.72 330.89 C 465.49 359.49 455.36 388.20 439.39 413.83 C 449.11 424.21 460.62 433.69 474.55 437.60 C 489.34 442.02 505.95 440.97 519.58 433.46 C 527.19 429.58 533.87 424.17 539.94 418.19 C 531.72 402.32 529.27 383.66 532.51 366.13 C 534.56 356.54 538.81 347.10 545.97 340.24 C 549.89 336.71 555.62 333.43 560.92 335.86 C 567.29 338.67 569.92 345.82 571.61 352.07 C 577.61 377.00 568.23 403.45 552.00 422.55 C 560.62 433.52 573.69 442.02 588.04 441.78 C 603.14 441.62 617.31 435.64 631.58 431.39 C 646.99 426.16 663.96 423.86 679.85 428.32 C 687.78 430.43 694.89 434.69 701.44 439.52 C 703.32 441.12 705.79 441.45 708.14 441.90 C 705.92 441.61 703.58 441.48 701.72 440.12 C 695.37 436.05 688.67 432.30 681.23 430.67 C 665.30 426.92 648.48 429.56 633.37 435.37 C 617.27 440.74 601.36 448.52 584.02 448.38 C 569.18 448.34 555.62 439.69 546.53 428.41 C 534.20 440.09 518.91 449.34 501.90 451.85 C 484.38 454.24 465.93 450.64 450.96 441.10 C 443.93 436.45 437.40 431.05 431.55 424.97 C 421.13 438.42 408.36 450.25 393.28 458.28 C 379.40 465.67 363.81 470.84 347.92 469.94 C 331.05 469.27 314.41 462.90 301.82 451.58 C 284.55 461.79 265.56 469.10 245.91 473.13 C 223.57 477.63 200.55 476.48 178.09 473.53 C 167.28 472.02 156.45 470.52 145.80 468.06 C 123.51 463.41 101.00 456.37 77.97 459.07 C 59.62 461.55 44.14 472.45 28.96 482.23 C 43.95 469.33 60.53 456.16 80.82 453.65 C 108.58 449.98 135.70 459.24 163.06 462.25 C 192.55 465.71 223.08 467.86 252.04 459.80 C 266.37 455.71 280.48 450.37 293.17 442.47 C 282.25 428.90 276.77 411.25 277.04 393.92 C 277.46 370.02 293.80 346.58 317.23 340.19 C 325.94 337.74 335.93 340.19 342.22 346.78 C 350.75 355.04 353.46 367.53 352.78 379.03 C 352.23 394.76 345.48 409.72 335.88 421.99 C 328.40 431.59 319.08 439.58 309.30 446.75 C 323.09 457.98 341.57 463.00 359.16 460.58 C 373.89 458.16 387.86 451.78 399.67 442.70 C 409.08 435.27 417.22 426.27 424.03 416.42 C 412.13 401.51 403.08 384.47 396.43 366.63 C 388.42 344.68 384.79 321.32 384.03 298.03 C 383.70 279.77 385.18 261.25 390.84 243.79 C 397.76 222.78 409.30 202.80 426.21 188.27 M 424.62 202.57 C 404.59 224.08 395.65 254.00 395.49 282.97 C 394.97 325.75 406.00 369.63 431.60 404.42 C 442.76 383.53 451.22 361.26 457.56 338.45 C 466.99 308.61 471.05 277.23 470.99 245.99 C 470.63 231.36 469.94 216.34 464.38 202.61 C 461.17 195.57 454.13 189.27 445.95 189.96 C 437.22 190.35 430.33 196.56 424.62 202.57 M 549.94 344.94 C 543.64 350.65 540.16 358.91 538.66 367.15 C 536.27 382.26 538.41 398.20 545.41 411.87 C 558.41 395.06 565.68 372.91 561.30 351.73 C 560.38 348.37 559.78 344.39 556.85 342.12 C 554.27 341.64 551.84 343.38 549.94 344.94 M 303.62 354.63 C 291.63 364.24 284.79 379.73 284.98 395.02 C 285.06 410.53 290.48 426.03 300.36 438.02 C 318.07 425.45 334.59 408.87 340.60 387.41 C 343.20 377.05 344.39 365.11 338.59 355.58 C 335.47 350.08 329.45 346.13 323.00 346.45 C 315.84 346.85 309.27 350.43 303.62 354.63 Z"/><text x="0" y="735" fill="#000000" font-size="5px" font-weight="bold" font-family="'Helvetica Neue', Helvetica, Arial-Unicode, Arial, Sans-serif">Created by LSE Designs</text><text x="0" y="740" fill="#000000" font-size="5px" font-weight="bold" font-family="'Helvetica Neue', Helvetica, Arial-Unicode, Arial, Sans-serif">from the Noun Project</text></svg>